<svg width="64" height="64" viewBox="0 0 64 64" fill="none" xmlns="http://www.w3.org/2000/svg">
  <rect width="64" height="64" rx="14" fill="#111111"/>
  <path d="M13 37.5H51L46.7 25.7C46 23.9 44.2 22.7 42.2 22.7H21.8C19.8 22.7 18 23.9 17.3 25.7L13 37.5Z" fill="#db2d2e"/>
  <path d="M21.7 27.5H42.3L44.2 33.2H19.8L21.7 27.5Z" fill="#f5f5f5"/>
  <path d="M12 37.5H52V45.8C52 47.6 50.6 49 48.8 49H15.2C13.4 49 12 47.6 12 45.8V37.5Z" fill="#db2d2e"/>
  <circle cx="21.5" cy="45.5" r="5.5" fill="#111111"/>
  <circle cx="42.5" cy="45.5" r="5.5" fill="#111111"/>
  <path d="M25 42H39" stroke="#ffffff" stroke-width="3" stroke-linecap="round"/>
  <path d="M19 36H45" stroke="#111111" stroke-width="2" stroke-linecap="round" opacity="0.4"/>
  <path d="M18 16H46" stroke="#db2d2e" stroke-width="4" stroke-linecap="round"/>
  <text x="32" y="18" text-anchor="middle" font-family="Arial, Helvetica, sans-serif" font-size="12" font-weight="800" fill="#ffffff">DSF</text>
</svg>
